<?xml version="1.0" standalone="no"?>
<!DOCTYPE svg PUBLIC "-//W3C//DTD SVG 20010904//EN"
 "http://www.w3.org/TR/2001/REC-SVG-20010904/DTD/svg10.dtd">
<svg version="1.0" xmlns="http://www.w3.org/2000/svg"
 width="300.000000pt" height="300.000000pt" viewBox="0 0 300.000000 300.000000"
 preserveAspectRatio="xMidYMid meet">

<g transform="translate(0.000000,300.000000) scale(0.100000,-0.100000)"
fill="#ffffff" stroke="none">
<path d="M1295 2969 c-451 -70 -833 -337 -1063 -744 -87 -154 -157 -360 -183
-543 -18 -126 -7 -402 21 -532 108 -505 459 -924 920 -1099 68 -26 81 -26 114
0 l26 20 0 160 0 160 -37 -8 c-21 -4 -81 -8 -133 -8 -80 1 -104 5 -150 26 -88
41 -125 80 -186 199 -53 106 -62 116 -181 222 -13 11 -23 24 -23 29 0 19 49
31 94 25 67 -10 132 -60 202 -157 33 -46 78 -96 100 -111 73 -50 178 -60 279
-25 35 12 39 18 52 68 7 30 27 76 43 102 33 53 33 52 -45 62 -63 9 -196 50
-256 80 -158 80 -265 236 -305 443 -8 41 -14 129 -14 197 0 152 26 248 96 352
l45 67 -12 52 c-16 69 -6 245 16 308 l18 49 56 -6 c71 -8 180 -52 271 -111
l70 -46 97 22 c140 31 397 31 535 0 l97 -21 72 44 c95 59 204 103 271 111 l55
6 18 -48 c23 -65 31 -228 16 -302 l-13 -57 45 -67 c80 -119 108 -248 96 -439
-22 -321 -172 -522 -454 -604 -44 -12 -106 -26 -138 -30 -31 -4 -57 -11 -57
-15 0 -4 9 -19 21 -34 11 -14 30 -52 42 -84 19 -52 22 -81 25 -334 l4 -278 25
-20 c35 -27 48 -26 145 16 258 110 478 286 637 509 72 101 167 291 205 407 58
178 71 269 71 478 0 145 -5 218 -18 285 -121 615 -550 1071 -1137 1207 -98 22
-395 33 -495 17z"/>
</g>
</svg>
